<?xml version="1.0" encoding="UTF-8"?>
<level>
  <owner>stolbitsa</owner>
  <repo>sedaya-noch-chorus</repo>
  <version>v1.0.3</version>
  <next number="1" owner="stolbitsa" repo="sedaya-noch-verse"/>
  <readme>
    <ru>cdf4bd7e9d85ada1a6f79a6e444a389614e5784573236729325f30a534e6821b</ru>
    <en>e7b10e5d49cb320a45d32df38ad9a73527c7ffa4c7d4d4abe3e2f66001d0507b</en>
  </readme>
  <license>b1b99f5538d1fd3702219bff50c665196dfa42f6ee755c37fe41a6178d6bc6e5</license>
  <exercise number="1">
    <scale>minor</scale>
    <bpm>129</bpm>
    <lowestNote>4</lowestNote>
    <tonalities>5</tonalities>
    <video name="3-noch-1.mp4" size="1934117" type="video/mp4" volume="1">76ce490cf84cd90cfbdb57ddd5d35baafc47dcbe8d5dc38b9e53685fc2386a6f</video>
    <notes>
      <note number="1" values="5" ticks="288" durationTicks="93" ppq="96" velocity="0.887"/>
      <note number="2" values="38" ticks="384" durationTicks="26" ppq="96" velocity="0.787"/>
      <note number="3" values="38" ticks="433" durationTicks="93" ppq="96" velocity="0.734"/>
      <note number="4" values="28" ticks="528" durationTicks="24" ppq="96" velocity="0.921"/>
      <note number="5" values="28" ticks="577" durationTicks="94" ppq="96" velocity="0.792"/>
      <note number="6" values="18" ticks="673" durationTicks="22" ppq="96" velocity="0.921"/>
      <note number="7" values="18" ticks="721" durationTicks="95" ppq="96" velocity="0.921"/>
    </notes>
  </exercise>
  <exercise number="2">
    <scale>minor</scale>
    <bpm>129</bpm>
    <lowestNote>4</lowestNote>
    <tonalities>5</tonalities>
    <video name="3-noch-2.mp4" size="1945042" type="video/mp4" volume="1">fb061229edf21cc77143a1de6ca697760d543746516bc1e200da2dbe3e44ed7b</video>
    <notes>
      <note number="1" values="18" ticks="96" durationTicks="47" ppq="96" velocity="0.887"/>
      <note number="2" values="28" ticks="145" durationTicks="95" ppq="96" velocity="0.787"/>
      <note number="3" values="38" ticks="241" durationTicks="44" ppq="96" velocity="0.734"/>
      <note number="4" values="48" ticks="288" durationTicks="121" ppq="96" velocity="0.921"/>
      <note number="5" values="48" ticks="434" durationTicks="44" ppq="96" velocity="0.792"/>
      <note number="6" values="38" ticks="482" durationTicks="25" ppq="96" velocity="0.921"/>
      <note number="7" values="38" ticks="528" durationTicks="44" ppq="96" velocity="0.921"/>
      <note number="8" values="28" ticks="577" durationTicks="72" ppq="96" velocity="0.921"/>
      <note number="9" values="28" ticks="672" durationTicks="95" ppq="96" velocity="0.921"/>
    </notes>
  </exercise>
  <exercise number="3">
    <scale>minor</scale>
    <bpm>129</bpm>
    <lowestNote>4</lowestNote>
    <tonalities>5</tonalities>
    <video name="3-noch-3.mp4" size="1949675" type="video/mp4" volume="1">3ebb4afe3d4fdd924dff4ff9b4d1ea2c8f66dd7d4ad2dfc6684662c3cfad931d</video>
    <notes>
      <note number="1" values="48" ticks="192" durationTicks="26" ppq="96" velocity="0.887"/>
      <note number="2" values="48" ticks="241" durationTicks="95" ppq="96" velocity="0.787"/>
      <note number="3" values="38" ticks="338" durationTicks="23" ppq="96" velocity="0.734"/>
      <note number="4" values="38" ticks="384" durationTicks="47" ppq="96" velocity="0.921"/>
      <note number="5" values="28" ticks="434" durationTicks="72" ppq="96" velocity="0.792"/>
      <note number="6" values="28" ticks="530" durationTicks="141" ppq="96" velocity="0.921"/>
    </notes>
  </exercise>
  <exercise number="4">
    <scale>minor</scale>
    <bpm>129</bpm>
    <lowestNote>4</lowestNote>
    <tonalities>5</tonalities>
    <video name="3-noch-4.mp4" size="1920478" type="video/mp4" volume="1">e82bdd94699730a098b7d51d08f487e77b81784b1aa850ea7346d1061b5316c1</video>
    <notes>
      <note number="1" values="5" ticks="48" durationTicks="74" ppq="96" velocity="0.887"/>
      <note number="2" values="5" ticks="144" durationTicks="45" ppq="96" velocity="0.787"/>
      <note number="3" values="18" ticks="194" durationTicks="44" ppq="96" velocity="0.734"/>
      <note number="4" values="28" ticks="241" durationTicks="47" ppq="96" velocity="0.921"/>
      <note number="5" values="38" ticks="288" durationTicks="192" ppq="96" velocity="0.792"/>
      <note number="6" values="5" ticks="482" durationTicks="94" ppq="96" velocity="0.921"/>
    </notes>
  </exercise>
  <exercise number="5">
    <scale>minor</scale>
    <bpm>129</bpm>
    <lowestNote>6</lowestNote>
    <tonalities>5</tonalities>
    <video name="3-noch-5.mp4" size="1933627" type="video/mp4" volume="1">1dd00817e1454186bbdaa0af04c897cae63917097fdd5717e0334a49ce3ab836</video>
    <notes>
      <note number="1" values="18" ticks="84" durationTicks="47" ppq="96" velocity="0.887"/>
      <note number="2" values="68" ticks="135" durationTicks="95" ppq="96" velocity="0.787"/>
      <note number="3" values="7" ticks="231" durationTicks="44" ppq="96" velocity="0.734"/>
      <note number="4" values="58" ticks="278" durationTicks="86" ppq="96" velocity="0.921"/>
      <note number="5" values="6" ticks="373" durationTicks="44" ppq="96" velocity="0.792"/>
      <note number="6" values="48" ticks="422" durationTicks="192" ppq="96" velocity="0.921"/>
    </notes>
  </exercise>
  <exercise number="6">
    <scale>minor</scale>
    <bpm>129</bpm>
    <lowestNote>4</lowestNote>
    <tonalities>5</tonalities>
    <video name="3-noch-6.mp4" size="1890172" type="video/mp4" volume="1">34d6e8110c150d4623c76de9872e3757291094a0dd1ad8b092650194dc4cd1f4</video>
    <notes>
      <note number="1" values="5" ticks="84" durationTicks="47" ppq="96" velocity="0.887"/>
      <note number="2" values="38" ticks="135" durationTicks="95" ppq="96" velocity="0.787"/>
      <note number="3" values="4" ticks="231" durationTicks="44" ppq="96" velocity="0.734"/>
      <note number="4" values="28" ticks="278" durationTicks="86" ppq="96" velocity="0.921"/>
      <note number="5" values="5" ticks="373" durationTicks="44" ppq="96" velocity="0.792"/>
      <note number="6" values="38" ticks="422" durationTicks="191" ppq="96" velocity="0.921"/>
    </notes>
  </exercise>
  <exercise number="7">
    <scale>minor</scale>
    <bpm>129</bpm>
    <lowestNote>4</lowestNote>
    <tonalities>5</tonalities>
    <video name="3-noch-7.mp4" size="1954355" type="video/mp4" volume="1">9fbfd1396cf50ab8b317c38cf7592e3f8bc9fb3ff2521e20df6bc84c2863acfe</video>
    <notes>
      <note number="1" values="28" ticks="84" durationTicks="47" ppq="96" velocity="0.887"/>
      <note number="2" values="18" ticks="135" durationTicks="95" ppq="96" velocity="0.787"/>
      <note number="3" values="48" ticks="231" durationTicks="95" ppq="96" velocity="0.734"/>
      <note number="4" values="38" ticks="373" durationTicks="48" ppq="96" velocity="0.921"/>
      <note number="5" values="28" ticks="423" durationTicks="97" ppq="96" velocity="0.792"/>
      <note number="6" values="18" ticks="561" durationTicks="50" ppq="96" velocity="0.921"/>
      <note number="7" values="28" ticks="610" durationTicks="95" ppq="96" velocity="0.921"/>
      <note number="8" values="79" ticks="754" durationTicks="52" ppq="96" velocity="0.921"/>
      <note number="9" values="18" ticks="805" durationTicks="95" ppq="96" velocity="0.921"/>
    </notes>
  </exercise>
  <exercise number="8">
    <scale>minor</scale>
    <bpm>129</bpm>
    <lowestNote>4</lowestNote>
    <tonalities>5</tonalities>
    <video name="3-noch-8.mp4" size="1896955" type="video/mp4" volume="1">a738d8dff435733ea74afe6f973dec9cc6cd622fec9d6afbbea26fe4a008a49e</video>
    <notes>
      <note number="1" values="28" ticks="84" durationTicks="47" ppq="96" velocity="0.887"/>
      <note number="2" values="18" ticks="135" durationTicks="95" ppq="96" velocity="0.787"/>
      <note number="3" values="48" ticks="231" durationTicks="95" ppq="96" velocity="0.734"/>
      <note number="4" values="38" ticks="373" durationTicks="48" ppq="96" velocity="0.921"/>
      <note number="5" values="28" ticks="423" durationTicks="97" ppq="96" velocity="0.792"/>
      <note number="6" values="18" ticks="561" durationTicks="50" ppq="96" velocity="0.921"/>
      <note number="7" values="28" ticks="610" durationTicks="95" ppq="96" velocity="0.921"/>
      <note number="8" values="79" ticks="754" durationTicks="52" ppq="96" velocity="0.921"/>
      <note number="9" values="18" ticks="805" durationTicks="95" ppq="96" velocity="0.921"/>
    </notes>
  </exercise>
</level>
